<?xml version="1.0" encoding="UTF-8" standalone="no"?>
<!-- Created with Inkscape (http://www.inkscape.org/) -->

<svg
   width="84.115448mm"
   height="22.444109mm"
   viewBox="0 0 84.115448 22.444109"
   version="1.1"
   id="svg1"
   sodipodi:docname="DataHelp.eu.svg"
   inkscape:export-filename="DataHelp.eu.svg"
   inkscape:export-xdpi="96"
   inkscape:export-ydpi="96"
   inkscape:version="1.3.2 (091e20e, 2023-11-25)"
   xmlns:inkscape="http://www.inkscape.org/namespaces/inkscape"
   xmlns:sodipodi="http://sodipodi.sourceforge.net/DTD/sodipodi-0.dtd"
   xmlns="http://www.w3.org/2000/svg"
   xmlns:svg="http://www.w3.org/2000/svg">
  <sodipodi:namedview
     id="namedview1"
     pagecolor="#ffffff"
     bordercolor="#000000"
     borderopacity="0.25"
     inkscape:showpageshadow="2"
     inkscape:pageopacity="0.0"
     inkscape:pagecheckerboard="0"
     inkscape:deskcolor="#d1d1d1"
     inkscape:document-units="mm"
     inkscape:zoom="2.6988206"
     inkscape:cx="158.95833"
     inkscape:cy="42.240674"
     inkscape:window-width="1440"
     inkscape:window-height="449"
     inkscape:window-x="0"
     inkscape:window-y="25"
     inkscape:window-maximized="0"
     inkscape:current-layer="svg1" />
  <defs
     id="defs1" />
  <g
     id="layer1"
     transform="translate(-51.504274,-138.31424)">
    <g
       id="g2"
       transform="matrix(0.35277778,0,0,0.35277778,40.300822,73.92816)">
      <path
         fill-rule="nonzero"
         fill="#ffffff"
         fill-opacity="1"
         d="m 270.19531,246.13281 c 0,0 -238.437498,0 -238.437498,0 0,0 0,-63.62109 0,-63.62109 0,0 238.437498,0 238.437498,0 z m 0,0"
         id="path1"
         style="display:inline;opacity:0;fill:none;fill-opacity:1" />
      <path
         fill-rule="nonzero"
         fill="#f79210"
         fill-opacity="1"
         d="m 50.109375,205.80078 c 0,0 -1.421875,5.08203 -0.292969,9.64453 0,0 -3.414062,3.14844 -3.414062,3.14844 -0.402344,-1.58984 -0.5,-3.38281 -0.5,-3.38281 0,0 -3.089844,1.67578 -3.089844,1.67578 0,0 -0.05469,-1.7461 -0.05469,-1.7461 0,0 3.222657,-1.67968 3.222657,-1.67968 0,0 0.289062,-3.47657 2.375,-7.67578 0,0 1.4375,0.0273 1.4375,0.0273 z m 0,0"
         id="path2"
         style="fill:#ffb52f;fill-opacity:1" />
      <path
         fill-rule="nonzero"
         fill="#f79210"
         fill-opacity="1"
         d="m 57.734375,226.16797 c 0,0 -1.601563,0.16406 -3.039063,0.008 -1.5625,-0.17187 -3.0625,-0.86328 -3.0625,-0.86328 0,0 -2.671874,6.62109 -2.671874,6.62109 0,0 -1.140626,-1.42578 -1.140626,-1.42578 0,0 2.621094,-5.85547 2.621094,-5.85547 0,0 -1.574218,-1.1289 -2.453125,-2.36718 -0.882812,-1.23829 -1.261719,-2.5 -1.261719,-2.5 0,0 3.402344,-3.28125 3.402344,-3.28125 0,0 1.097656,2.98828 2.742188,4.61718 2.289062,2.26172 5.046875,2.58594 5.046875,2.58594 z m 0,0"
         id="path3"
         style="fill:#ffb52f;fill-opacity:1" />
      <path
         fill-rule="nonzero"
         fill="#f79210"
         fill-opacity="1"
         d="m 76.183594,231.61328 c -2.929688,2.66016 -6.164063,4.77344 -9.679688,6.02734 0,0 -3.65625,-12.93359 -3.65625,-12.93359 0,0 -1.183594,0.65625 -3.863281,1.24609 0,0 -0.117187,-2.13281 -0.117187,-2.13281 0,0 2.460937,0.3086 5.320312,-0.87109 2.847656,-1.17188 4.703125,-2.71875 4.703125,-2.71875 z m 0,0"
         id="path4"
         style="display:inline;fill:#ffb52f;fill-opacity:1" />
      <path
         fill-rule="nonzero"
         fill="#215383"
         fill-opacity="1"
         d="m 53.550781,198.94141 c -2.363281,2.20312 -4.082031,4.99609 -4.082031,4.99609 0,0 -5.878906,-2.36328 -5.878906,-2.36328 1.921875,-3.59766 8.007812,-9.86328 8.007812,-9.86328 0.652344,2.41797 1.375,4.88672 1.976563,7.35937 z m 0,0"
         id="path5"
         style="fill:#1f3f8a;fill-opacity:1" />
      <path
         fill-rule="nonzero"
         fill="#215383"
         fill-opacity="1"
         d="m 48.863281,204.90625 c -0.828125,1.42578 -2.382812,4.54687 -2.882812,8.55469 0,0 -8.074219,4.20312 -8.074219,4.20312 0,0 0,-0.30078 0,-0.30078 0.867188,-5.25781 2.613281,-10.14453 5.046875,-14.73047 z m 0,0"
         id="path6"
         style="fill:#1f3f8a;fill-opacity:1" />
      <path
         fill-rule="nonzero"
         fill="#215383"
         fill-opacity="1"
         d="m 50.417969,224.74219 c 0,0 -5.523438,12.55859 -5.523438,12.55859 -5.523437,-4.41016 -6.933593,-10.95703 -7.023437,-17.78516 2.789062,-1.39453 5.277344,-2.83984 8.03125,-4.30468 0.378906,4.67187 1.476562,7.25781 4.550781,9.41797 z m 0,0"
         id="path7"
         style="fill:#1f3f8a;fill-opacity:1" />
      <path
         fill-rule="nonzero"
         fill="#215383"
         fill-opacity="1"
         d="m 66.710938,238.36719 c -3.140626,1.25 -6.441407,2.13672 -9.988282,2.41797 -2.292968,0.0508 -4.515625,-0.0547 -6.5625,-0.56641 -1.394531,-0.35156 -2.679687,-0.91797 -3.898437,-1.73047 0,0 5.339843,-13.21094 5.339843,-13.21094 4.800782,2.25782 10.136719,-0.0898 11.246094,-0.57031 z m 0,0"
         id="path8"
         style="fill:#1f3f8a;fill-opacity:1" />
      <path
         fill-rule="nonzero"
         fill="#215383"
         fill-opacity="1"
         d="m 79.28125,204.57812 c 0,-1.82812 -0.335938,-3.39062 -0.996094,-4.6914 -0.664062,-1.29688 -1.714844,-2.31641 -3.15625,-3.05078 -0.730468,-0.35938 -1.480468,-0.60547 -2.242187,-0.73438 -0.761719,-0.13281 -1.914063,-0.19922 -3.449219,-0.19922 0,0 -1.804688,0 -1.804688,0 0,0 0,17.39063 0,17.39063 0,0 1.804688,0 1.804688,0 1.699219,0 2.945312,-0.0781 3.738281,-0.23438 0.792969,-0.15625 1.570313,-0.4375 2.324219,-0.84765 1.304688,-0.7461 2.257812,-1.7461 2.867188,-2.9961 0.609374,-1.25 0.914062,-2.79297 0.914062,-4.63672 z m 7.480469,0.0469 c 0,2.59375 -0.59375,4.91797 -1.777344,6.96875 -1.183594,2.05078 -2.683594,3.625 -4.492187,4.72266 -1.359376,0.82421 -2.851563,1.39843 -4.472657,1.72265 -1.621093,0.32422 -3.542969,0.48438 -5.765625,0.48438 0,0 -9.824218,0 -9.824218,0 0,0 0,-27.85157 0,-27.85157 0,0 10.105468,0 10.105468,0 2.269532,0 4.230469,0.19141 5.878906,0.57032 1.644532,0.3789 3.03125,0.91797 4.152344,1.61718 1.921875,1.17188 3.4375,2.75391 4.539063,4.74219 1.105469,1.98828 1.65625,4.33203 1.65625,7.02344 z m 0,0"
         id="path9"
         style="fill:#1f3f8a;fill-opacity:1" />
      <path
         fill-rule="nonzero"
         fill="#215383"
         fill-opacity="1"
         d="m 104.78906,207.77734 c 0,0 -3.3789,-9.84375 -3.3789,-9.84375 0,0 -3.382816,9.84375 -3.382816,9.84375 z m 11.17188,10.7461 c 0,0 -7.5,0 -7.5,0 0,0 -1.96094,-5.6836 -1.96094,-5.6836 0,0 -10.1875,0 -10.1875,0 0,0 -1.960938,5.6836 -1.960938,5.6836 0,0 -7.257812,0 -7.257812,0 0,0 10.296875,-27.85157 10.296875,-27.85157 0,0 8.273435,0 8.273435,0 z m 0,0"
         id="path10"
         style="fill:#1f3f8a;fill-opacity:1" />
      <path
         fill-rule="nonzero"
         fill="#215383"
         fill-opacity="1"
         d="m 138.03125,196.07422 c 0,0 -8.72266,0 -8.72266,0 0,0 0,22.44922 0,22.44922 0,0 -7.19921,0 -7.19921,0 0,0 0,-22.44922 0,-22.44922 0,0 -8.72266,0 -8.72266,0 0,0 0,-5.40235 0,-5.40235 0,0 24.64453,0 24.64453,0 z m 0,0"
         id="path11"
         style="fill:#1f3f8a;fill-opacity:1" />
      <path
         fill-rule="nonzero"
         fill="#215383"
         fill-opacity="1"
         d="m 153.21484,207.77734 c 0,0 -3.3789,-9.84375 -3.3789,-9.84375 0,0 -3.37891,9.84375 -3.37891,9.84375 z m 11.17188,10.7461 c 0,0 -7.4961,0 -7.4961,0 0,0 -1.96093,-5.6836 -1.96093,-5.6836 0,0 -10.1875,0 -10.1875,0 0,0 -1.96094,5.6836 -1.96094,5.6836 0,0 -7.25781,0 -7.25781,0 0,0 10.29687,-27.85157 10.29687,-27.85157 0,0 8.27344,0 8.27344,0 z m 0,0"
         id="path12"
         style="fill:#1f3f8a;fill-opacity:1" />
      <path
         fill-rule="nonzero"
         fill="#215383"
         fill-opacity="1"
         d="m 188.96875,218.52344 c 0,0 -3.71484,0 -3.71484,0 0,0 0,-13.61719 0,-13.61719 0,0 -13.84375,0 -13.84375,0 0,0 0,13.61719 0,13.61719 0,0 -3.71485,0 -3.71485,0 0,0 0,-27.85157 0,-27.85157 0,0 3.71485,0 3.71485,0 0,0 0,10.91407 0,10.91407 0,0 13.84375,0 13.84375,0 0,0 0,-10.91407 0,-10.91407 0,0 3.71484,0 3.71484,0 z m 0,0"
         id="path13"
         style="fill:#1f3f8a;fill-opacity:1" />
      <path
         fill-rule="nonzero"
         fill="#215383"
         fill-opacity="1"
         d="m 213.625,218.52344 c 0,0 -18.34375,0 -18.34375,0 0,0 0,-27.85157 0,-27.85157 0,0 18.34375,0 18.34375,0 0,0 0,3.32032 0,3.32032 0,0 -14.62891,0 -14.62891,0 0,0 0,7.59375 0,7.59375 0,0 14.62891,0 14.62891,0 0,0 0,3.32031 0,3.32031 0,0 -14.62891,0 -14.62891,0 0,0 0,10.29687 0,10.29687 0,0 14.62891,0 14.62891,0 z m 0,0"
         id="path14"
         style="fill:#1f3f8a;fill-opacity:1" />
      <path
         fill-rule="nonzero"
         fill="#215383"
         fill-opacity="1"
         d="m 236.10156,218.52344 c 0,0 -17.61328,0 -17.61328,0 0,0 0,-27.85157 0,-27.85157 0,0 3.71484,0 3.71484,0 0,0 0,24.53125 0,24.53125 0,0 13.89844,0 13.89844,0 z m 0,0"
         id="path15"
         style="fill:#1f3f8a;fill-opacity:1" />
      <path
         fill-rule="nonzero"
         fill="#215383"
         fill-opacity="1"
         d="m 253.72266,199.16016 c 0,-0.94922 -0.16797,-1.77735 -0.50391,-2.48047 -0.33594,-0.70703 -0.84766,-1.28125 -1.53125,-1.72657 -0.59766,-0.38281 -1.27734,-0.65625 -2.04297,-0.82421 -0.76562,-0.16797 -1.73047,-0.25 -2.90234,-0.25 0,0 -3.65625,0 -3.65625,0 0,0 0,11.02734 0,11.02734 0,0 3.11718,0 3.11718,0 1.49219,0 2.70313,-0.13281 3.63672,-0.39844 0.9336,-0.26562 1.69141,-0.6875 2.27735,-1.26953 0.58203,-0.58984 0.99609,-1.21484 1.23828,-1.87109 0.24609,-0.65625 0.36719,-1.39063 0.36719,-2.20703 z m 3.88281,-0.0859 c 0,1.23437 -0.21875,2.3789 -0.64844,3.42969 -0.42969,1.05078 -1.03125,1.96484 -1.80469,2.73437 -0.96093,0.95703 -2.09375,1.67969 -3.40234,2.15625 -1.3125,0.48047 -2.96484,0.71875 -4.96094,0.71875 0,0 -3.70312,0 -3.70312,0 0,0 0,10.41016 0,10.41016 0,0 -3.71485,0 -3.71485,0 0,0 0,-27.85157 0,-27.85157 0,0 7.5625,0 7.5625,0 1.67188,0 3.08985,0.14063 4.25,0.41797 1.16016,0.28125 2.19141,0.72266 3.08985,1.32032 1.05859,0.70703 1.8789,1.58984 2.46093,2.64843 0.57813,1.0586 0.8711,2.39844 0.8711,4.01563 z m 0,0"
         id="path16"
         style="fill:#1f3f8a;fill-opacity:1" />
      <path
         fill-rule="nonzero"
         fill="#bdbcbc"
         fill-opacity="1"
         d="m 85.917969,232.69922 c 0,0 0,-4.1211 0,-4.1211 -0.339844,-0.15234 -0.652344,-0.26171 -0.941407,-0.32812 -0.292968,-0.0664 -0.582031,-0.0977 -0.871093,-0.0977 -0.699219,0 -1.25,0.23438 -1.652344,0.70313 -0.398437,0.46875 -0.601563,1.15234 -0.601563,2.04297 0,0.84765 0.148438,1.49218 0.449219,1.92968 0.296875,0.4375 0.789063,0.65625 1.480469,0.65625 0.367188,0 0.738281,-0.0742 1.113281,-0.21484 0.371094,-0.14062 0.710938,-0.33203 1.023438,-0.57031 z m 1.265625,1.20703 c 0,1.27734 -0.289063,2.21484 -0.871094,2.81641 -0.582031,0.59765 -1.476562,0.89453 -2.683594,0.89453 -0.398437,0 -0.792968,-0.0273 -1.171875,-0.082 -0.378906,-0.0586 -0.757812,-0.13672 -1.125,-0.23829 0,0 0,-1.29687 0,-1.29687 0,0 0.06641,0 0.06641,0 0.207031,0.082 0.539062,0.18359 0.988281,0.30078 0.453125,0.11719 0.902343,0.17969 1.351562,0.17969 0.433594,0 0.792969,-0.0547 1.078125,-0.15625 0.285156,-0.10547 0.503906,-0.2461 0.664063,-0.4336 0.15625,-0.17187 0.269531,-0.38671 0.335937,-0.63281 0.06641,-0.24609 0.101563,-0.52344 0.101563,-0.83203 0,0 0,-0.6875 0,-0.6875 -0.382813,0.30859 -0.75,0.53516 -1.097657,0.6875 -0.351562,0.14844 -0.796874,0.22656 -1.335937,0.22656 -0.902344,0 -1.617187,-0.32812 -2.144531,-0.97656 -0.53125,-0.65234 -0.796875,-1.57031 -0.796875,-2.75391 0,-0.64843 0.09375,-1.20703 0.273437,-1.67578 0.183594,-0.47265 0.433594,-0.8789 0.75,-1.22265 0.292969,-0.31641 0.648438,-0.56641 1.066406,-0.7461 0.417969,-0.17578 0.835938,-0.26562 1.25,-0.26562 0.4375,0 0.804688,0.043 1.097657,0.13281 0.296875,0.0859 0.609375,0.22266 0.9375,0.40234 0,0 0.08203,-0.32421 0.08203,-0.32421 0,0 1.183594,0 1.183594,0 z m 0,0"
         id="path17" />
      <path
         fill-rule="nonzero"
         fill="#bdbcbc"
         fill-opacity="1"
         d="m 97.507812,230.14844 c -0.0039,-0.66797 -0.171874,-1.1836 -0.5,-1.54688 -0.332031,-0.36719 -0.832031,-0.54687 -1.503906,-0.54687 -0.675781,0 -1.214844,0.19922 -1.617187,0.60156 -0.402344,0.39844 -0.628907,0.89844 -0.683594,1.49219 z m 1.238282,0.97265 c 0,0 -5.542969,0 -5.542969,0 0,0.46094 0.07031,0.86328 0.210937,1.20703 0.136719,0.34375 0.328126,0.625 0.570313,0.84766 0.234375,0.21484 0.507813,0.375 0.828125,0.48438 0.324219,0.10546 0.675781,0.16015 1.0625,0.16015 0.511719,0 1.023438,-0.10156 1.542969,-0.30469 0.515625,-0.19921 0.886719,-0.39843 1.105469,-0.59375 0,0 0.06641,0 0.06641,0 0,0 0,1.37891 0,1.37891 -0.425782,0.17969 -0.859375,0.32813 -1.304688,0.44922 -0.445312,0.12109 -0.910156,0.18359 -1.402344,0.18359 -1.246093,0 -2.222656,-0.33984 -2.921874,-1.01562 -0.703126,-0.67969 -1.050782,-1.64063 -1.050782,-2.88672 0,-1.23047 0.335938,-2.20703 1.007813,-2.93359 0.671875,-0.72266 1.554687,-1.08594 2.652343,-1.08594 1.015626,0 1.800782,0.29687 2.347657,0.89062 0.550781,0.59375 0.828125,1.4375 0.828125,2.53125 z m 0,0"
         id="path18" />
      <path
         fill-rule="nonzero"
         fill="#bdbcbc"
         fill-opacity="1"
         d="m 107.34375,234.70312 c -0.23828,0.0625 -0.5,0.11329 -0.78125,0.15625 -0.28125,0.0391 -0.53125,0.0586 -0.75,0.0586 -0.76953,0 -1.35156,-0.20703 -1.75391,-0.6211 -0.39843,-0.41406 -0.59765,-1.07812 -0.59765,-1.99218 0,0 0,-4.01172 0,-4.01172 0,0 -0.85938,0 -0.85938,0 0,0 0,-1.07031 0,-1.07031 0,0 0.85938,0 0.85938,0 0,0 0,-2.16407 0,-2.16407 0,0 1.26562,0 1.26562,0 0,0 0,2.16407 0,2.16407 0,0 2.61719,0 2.61719,0 0,0 0,1.07031 0,1.07031 0,0 -2.61719,0 -2.61719,0 0,0 0,3.4375 0,3.4375 0,0.39844 0.008,0.70703 0.0273,0.92969 0.0156,0.22265 0.0781,0.43359 0.1875,0.625 0.0977,0.17968 0.23437,0.3125 0.41015,0.39843 0.17188,0.082 0.4336,0.125 0.78907,0.125 0.20703,0 0.42187,-0.0312 0.64843,-0.0898 0.22266,-0.0625 0.38672,-0.10938 0.48438,-0.15234 0,0 0.0703,0 0.0703,0 z m 0,0"
         id="path19" />
      <path
         fill-rule="nonzero"
         fill="#bdbcbc"
         fill-opacity="1"
         d="m 125.76563,227.22266 c 0,0 -4.40235,10.32421 -4.40235,10.32421 0,0 -1.35156,0 -1.35156,0 0,0 1.39844,-3.14453 1.39844,-3.14453 0,0 -3.00391,-7.17968 -3.00391,-7.17968 0,0 1.375,0 1.375,0 0,0 2.31641,5.58593 2.31641,5.58593 0,0 2.33593,-5.58593 2.33593,-5.58593 z m 0,0"
         id="path20" />
      <path
         fill-rule="nonzero"
         fill="#bdbcbc"
         fill-opacity="1"
         d="m 135.16797,230.99609 c 0,-0.97265 -0.19141,-1.6914 -0.57031,-2.16406 -0.38282,-0.47266 -0.91407,-0.70703 -1.58985,-0.70703 -0.6875,0 -1.22265,0.23437 -1.60156,0.70703 -0.37891,0.47266 -0.57031,1.19141 -0.57031,2.16406 0,0.94141 0.1914,1.65235 0.57422,2.14063 0.38281,0.48437 0.91406,0.72656 1.59765,0.72656 0.67188,0 1.19922,-0.24219 1.58594,-0.72266 0.38281,-0.48046 0.57422,-1.19531 0.57422,-2.14453 z m 1.30859,0 c 0,1.23047 -0.3125,2.19922 -0.9414,2.91016 -0.62891,0.71094 -1.47266,1.06641 -2.52735,1.06641 -1.0664,0 -1.91406,-0.35547 -2.53906,-1.06641 -0.625,-0.71094 -0.94141,-1.67969 -0.94141,-2.91016 0,-1.22656 0.31641,-2.19922 0.94141,-2.91406 0.625,-0.71484 1.47266,-1.07031 2.53906,-1.07031 1.05469,0 1.89844,0.35547 2.52735,1.07031 0.6289,0.71484 0.9414,1.6875 0.9414,2.91406 z m 0,0"
         id="path21" />
      <path
         fill-rule="nonzero"
         fill="#bdbcbc"
         fill-opacity="1"
         d="m 147.4375,234.76172 c 0,0 -1.26563,0 -1.26563,0 0,0 0,-0.83203 0,-0.83203 -0.42578,0.33593 -0.83593,0.59375 -1.22656,0.77343 -0.39062,0.17969 -0.82031,0.26954 -1.29297,0.26954 -0.78906,0 -1.40234,-0.23829 -1.84375,-0.72266 -0.4414,-0.48438 -0.66015,-1.19531 -0.66015,-2.13281 0,0 0,-4.89453 0,-4.89453 0,0 1.26562,0 1.26562,0 0,0 0,4.29296 0,4.29296 0,0.38282 0.0195,0.71094 0.0547,0.98438 0.0352,0.26953 0.11328,0.50391 0.23047,0.69922 0.12109,0.19531 0.27734,0.33984 0.46875,0.42969 0.19531,0.0898 0.47656,0.13671 0.84375,0.13671 0.32422,0 0.68359,-0.0859 1.07031,-0.25781 0.39063,-0.17187 0.75391,-0.39062 1.08984,-0.65625 0,0 0,-5.6289 0,-5.6289 0,0 1.26563,0 1.26563,0 z m 0,0"
         id="path22" />
      <path
         fill-rule="nonzero"
         fill="#bdbcbc"
         fill-opacity="1"
         d="m 157.40234,228.60156 c 0,0 -0.0664,0 -0.0664,0 -0.1875,-0.043 -0.3711,-0.0781 -0.54688,-0.0977 -0.17969,-0.0195 -0.39062,-0.0273 -0.63281,-0.0273 -0.39063,0 -0.76953,0.0859 -1.13281,0.25781 -0.36328,0.17579 -0.71485,0.39844 -1.05078,0.67188 0,0 0,5.35547 0,5.35547 0,0 -1.26563,0 -1.26563,0 0,0 0,-7.53906 0,-7.53906 0,0 1.26563,0 1.26563,0 0,0 0,1.11328 0,1.11328 0.5039,-0.40235 0.94531,-0.69141 1.33203,-0.85938 0.38281,-0.16797 0.77734,-0.2539 1.17578,-0.2539 0.21875,0 0.3789,0.008 0.47656,0.0156 0.10156,0.0117 0.25,0.0352 0.44531,0.0664 z m 0,0"
         id="path23" />
      <path
         fill-rule="nonzero"
         fill="#bdbcbc"
         fill-opacity="1"
         d="m 173.81641,232.90625 c 0,0 0,-4.32031 0,-4.32031 -0.34375,-0.15235 -0.64844,-0.26172 -0.92188,-0.31641 -0.26953,-0.0625 -0.56641,-0.0898 -0.88672,-0.0898 -0.71094,0 -1.26562,0.24609 -1.66406,0.74218 -0.39453,0.4961 -0.59375,1.19532 -0.59375,2.10547 0,0.89453 0.15234,1.57422 0.46094,2.03907 0.30468,0.46484 0.79687,0.69921 1.47265,0.69921 0.35938,0 0.72657,-0.082 1.09766,-0.23828 0.36719,-0.16015 0.71484,-0.36718 1.03516,-0.62109 z m 1.26562,1.85547 c 0,0 -1.26562,0 -1.26562,0 0,0 0,-0.78516 0,-0.78516 -0.36719,0.3125 -0.7461,0.5586 -1.14454,0.73438 -0.39453,0.17578 -0.82421,0.26172 -1.28906,0.26172 -0.90234,0 -1.61719,-0.34375 -2.14844,-1.03907 -0.52734,-0.6914 -0.79296,-1.65234 -0.79296,-2.88281 0,-0.64062 0.0898,-1.20703 0.27343,-1.70703 0.1836,-0.5 0.42969,-0.92578 0.74219,-1.27734 0.30469,-0.34375 0.66016,-0.60547 1.07031,-0.78516 0.40625,-0.17969 0.82813,-0.26953 1.26563,-0.26953 0.39844,0 0.75,0.043 1.05469,0.125 0.30859,0.082 0.6289,0.21484 0.96875,0.39062 0,0 0,-3.25781 0,-3.25781 0,0 1.26562,0 1.26562,0 z m 0,0"
         id="path24" />
      <path
         fill-rule="nonzero"
         fill="#bdbcbc"
         fill-opacity="1"
         d="m 184.92578,232.91797 c 0,0 0,-2.10938 0,-2.10938 -0.38281,0.0234 -0.83594,0.0586 -1.35937,0.10547 -0.51954,0.043 -0.9336,0.10938 -1.23829,0.19531 -0.35937,0.10157 -0.65234,0.26563 -0.8789,0.48438 -0.22266,0.21875 -0.33594,0.51953 -0.33594,0.90625 0,0.43359 0.12891,0.75781 0.39063,0.97656 0.25781,0.22266 0.65625,0.33203 1.1875,0.33203 0.44531,0 0.84765,-0.0898 1.21484,-0.26172 0.36719,-0.17578 0.70703,-0.38281 1.01953,-0.6289 z m 1.26953,1.84375 c 0,0 -1.26953,0 -1.26953,0 0,0 0,-0.80078 0,-0.80078 -0.10937,0.0781 -0.26172,0.18359 -0.45312,0.32031 -0.19141,0.13672 -0.375,0.24609 -0.55469,0.32812 -0.21094,0.10547 -0.45313,0.19141 -0.72266,0.26172 -0.27734,0.0664 -0.59765,0.10157 -0.96484,0.10157 -0.67578,0 -1.25,-0.22266 -1.71875,-0.67188 -0.46875,-0.45312 -0.70703,-1.02344 -0.70703,-1.72266 0,-0.57031 0.125,-1.03515 0.36718,-1.38671 0.2461,-0.35547 0.59375,-0.63282 1.04688,-0.83594 0.45703,-0.19922 1.00391,-0.33985 1.64453,-0.41016 0.64063,-0.0703 1.32813,-0.125 2.0625,-0.16015 0,0 0,-0.19922 0,-0.19922 0,-0.28907 -0.0508,-0.53125 -0.15234,-0.71875 -0.0977,-0.19141 -0.24219,-0.33985 -0.42969,-0.44922 -0.17969,-0.10547 -0.39453,-0.17578 -0.64844,-0.21094 -0.25,-0.0352 -0.51172,-0.0547 -0.78515,-0.0547 -0.33204,0 -0.70313,0.043 -1.10938,0.13282 -0.41016,0.0898 -0.83203,0.21875 -1.26562,0.38671 0,0 -0.0664,0 -0.0664,0 0,0 0,-1.28906 0,-1.28906 0.24609,-0.0664 0.60156,-0.14062 1.07031,-0.22265 0.46875,-0.0781 0.92578,-0.1211 1.37891,-0.1211 0.53125,0 0.99219,0.0469 1.38672,0.13281 0.39062,0.0898 0.73047,0.23829 1.01953,0.44922 0.28125,0.20703 0.5,0.47657 0.64844,0.80469 0.14453,0.32813 0.22265,0.73438 0.22265,1.21875 z m 0,0"
         id="path25" />
      <path
         fill-rule="nonzero"
         fill="#bdbcbc"
         fill-opacity="1"
         d="m 195.30469,234.70312 c -0.23438,0.0625 -0.4961,0.11329 -0.77735,0.15625 -0.28125,0.0391 -0.53125,0.0586 -0.75,0.0586 -0.76953,0 -1.35156,-0.20703 -1.7539,-0.6211 -0.39844,-0.41406 -0.59766,-1.07812 -0.59766,-1.99218 0,0 0,-4.01172 0,-4.01172 0,0 -0.85937,0 -0.85937,0 0,0 0,-1.07031 0,-1.07031 0,0 0.85937,0 0.85937,0 0,0 0,-2.16407 0,-2.16407 0,0 1.26563,0 1.26563,0 0,0 0,2.16407 0,2.16407 0,0 2.61328,0 2.61328,0 0,0 0,1.07031 0,1.07031 0,0 -2.61328,0 -2.61328,0 0,0 0,3.4375 0,3.4375 0,0.39844 0.008,0.70703 0.0273,0.92969 0.0156,0.22265 0.0781,0.43359 0.1875,0.625 0.0977,0.17968 0.23437,0.3125 0.40625,0.39843 0.17578,0.082 0.4375,0.125 0.79297,0.125 0.20703,0 0.42187,-0.0312 0.64844,-0.0898 0.22656,-0.0625 0.38671,-0.10938 0.48437,-0.15234 0,0 0.0664,0 0.0664,0 z m 0,0"
         id="path26" />
      <path
         fill-rule="nonzero"
         fill="#bdbcbc"
         fill-opacity="1"
         d="m 204.18359,232.91797 c 0,0 0,-2.10938 0,-2.10938 -0.38281,0.0234 -0.83593,0.0586 -1.35937,0.10547 -0.51953,0.043 -0.9336,0.10938 -1.23828,0.19531 -0.35938,0.10157 -0.65625,0.26563 -0.87891,0.48438 -0.22266,0.21875 -0.33594,0.51953 -0.33594,0.90625 0,0.43359 0.13282,0.75781 0.39063,0.97656 0.25781,0.22266 0.65625,0.33203 1.1875,0.33203 0.44531,0 0.84765,-0.0898 1.21484,-0.26172 0.36719,-0.17578 0.70703,-0.38281 1.01953,-0.6289 z m 1.26563,1.84375 c 0,0 -1.26563,0 -1.26563,0 0,0 0,-0.80078 0,-0.80078 -0.10937,0.0781 -0.26172,0.18359 -0.45312,0.32031 -0.1875,0.13672 -0.375,0.24609 -0.55469,0.32812 -0.21094,0.10547 -0.44922,0.19141 -0.72656,0.26172 -0.27344,0.0664 -0.59375,0.10157 -0.96094,0.10157 -0.67578,0 -1.24609,-0.22266 -1.71875,-0.67188 -0.46875,-0.45312 -0.70703,-1.02344 -0.70703,-1.72266 0,-0.57031 0.125,-1.03515 0.36719,-1.38671 0.24609,-0.35547 0.59375,-0.63282 1.04687,-0.83594 0.45703,-0.19922 1.00391,-0.33985 1.64453,-0.41016 0.64063,-0.0703 1.32813,-0.125 2.0625,-0.16015 0,0 0,-0.19922 0,-0.19922 0,-0.28907 -0.0469,-0.53125 -0.14843,-0.71875 -0.10157,-0.19141 -0.2461,-0.33985 -0.4336,-0.44922 -0.17969,-0.10547 -0.39453,-0.17578 -0.64844,-0.21094 -0.25,-0.0352 -0.51171,-0.0547 -0.78515,-0.0547 -0.33203,0 -0.70313,0.043 -1.10938,0.13282 -0.41015,0.0898 -0.83203,0.21875 -1.26562,0.38671 0,0 -0.0664,0 -0.0664,0 0,0 0,-1.28906 0,-1.28906 0.2461,-0.0664 0.60156,-0.14062 1.07031,-0.22265 0.46485,-0.0781 0.92579,-0.1211 1.37891,-0.1211 0.53125,0 0.99219,0.0469 1.38672,0.13281 0.39062,0.0898 0.73047,0.23829 1.01953,0.44922 0.28125,0.20703 0.5,0.47657 0.64844,0.80469 0.14453,0.32813 0.21875,0.73438 0.21875,1.21875 z m 0,0"
         id="path27" />
      <path
         fill-rule="nonzero"
         fill="#bdbcbc"
         fill-opacity="1"
         d="m 223.60156,230.97266 c 0,-0.90235 -0.14844,-1.58594 -0.44531,-2.05079 -0.29688,-0.46875 -0.77734,-0.69921 -1.44141,-0.69921 -0.37109,0 -0.74609,0.0781 -1.125,0.23828 -0.3789,0.16015 -0.73047,0.36718 -1.05468,0.61718 0,0 0,4.32422 0,4.32422 0.35937,0.16407 0.67187,0.27344 0.92968,0.33985 0.26172,0.0625 0.55469,0.0937 0.88282,0.0937 0.70312,0 1.25781,-0.23047 1.65625,-0.69141 0.39843,-0.46484 0.59765,-1.1875 0.59765,-2.17187 z m 1.3086,-0.0352 c 0,0.62891 -0.0898,1.19531 -0.26563,1.69922 -0.17969,0.5039 -0.41797,0.92969 -0.72266,1.26953 -0.3164,0.35547 -0.67187,0.625 -1.05468,0.80078 -0.38282,0.17969 -0.80469,0.26563 -1.26172,0.26563 -0.42969,0 -0.80469,-0.0508 -1.125,-0.15235 -0.31641,-0.0977 -0.63281,-0.23437 -0.94531,-0.40625 0,0 -0.0781,0.34766 -0.0781,0.34766 0,0 -1.1875,0 -1.1875,0 0,0 0,-10.49219 0,-10.49219 0,0 1.26563,0 1.26563,0 0,0 0,3.74219 0,3.74219 0.35546,-0.29297 0.73437,-0.53125 1.13671,-0.71875 0.40235,-0.1875 0.85157,-0.28125 1.35157,-0.28125 0.89453,0 1.59765,0.34375 2.11328,1.02734 0.51562,0.6836 0.77344,1.64844 0.77344,2.89844 z m 0,0"
         id="path28" />
      <path
         fill-rule="nonzero"
         fill="#bdbcbc"
         fill-opacity="1"
         d="m 234.21875,232.91797 c 0,0 0,-2.10938 0,-2.10938 -0.38281,0.0234 -0.83594,0.0586 -1.35547,0.10547 -0.52344,0.043 -0.9375,0.10938 -1.23828,0.19531 -0.36328,0.10157 -0.65625,0.26563 -0.87891,0.48438 -0.22656,0.21875 -0.33593,0.51953 -0.33593,0.90625 0,0.43359 0.1289,0.75781 0.38671,0.97656 0.26172,0.22266 0.65625,0.33203 1.1875,0.33203 0.44532,0 0.84766,-0.0898 1.21485,-0.26172 0.36719,-0.17578 0.70703,-0.38281 1.01953,-0.6289 z m 1.26953,1.84375 c 0,0 -1.26953,0 -1.26953,0 0,0 0,-0.80078 0,-0.80078 -0.10938,0.0781 -0.26172,0.18359 -0.45313,0.32031 -0.1875,0.13672 -0.375,0.24609 -0.55078,0.32812 -0.21093,0.10547 -0.45312,0.19141 -0.72656,0.26172 -0.27344,0.0664 -0.59375,0.10157 -0.96094,0.10157 -0.67578,0 -1.25,-0.22266 -1.72265,-0.67188 -0.46875,-0.45312 -0.70313,-1.02344 -0.70313,-1.72266 0,-0.57031 0.1211,-1.03515 0.36719,-1.38671 0.24219,-0.35547 0.58984,-0.63282 1.04297,-0.83594 0.45703,-0.19922 1.0039,-0.33985 1.64453,-0.41016 0.64062,-0.0703 1.32812,-0.125 2.0625,-0.16015 0,0 0,-0.19922 0,-0.19922 0,-0.28907 -0.0469,-0.53125 -0.14844,-0.71875 -0.10156,-0.19141 -0.24609,-0.33985 -0.43359,-0.44922 -0.17969,-0.10547 -0.39453,-0.17578 -0.64844,-0.21094 -0.25,-0.0352 -0.51172,-0.0547 -0.78516,-0.0547 -0.33203,0 -0.70312,0.043 -1.10937,0.13282 -0.40625,0.0898 -0.83203,0.21875 -1.26563,0.38671 0,0 -0.0664,0 -0.0664,0 0,0 0,-1.28906 0,-1.28906 0.24609,-0.0664 0.60547,-0.14062 1.07031,-0.22265 0.46875,-0.0781 0.92969,-0.1211 1.38281,-0.1211 0.52735,0 0.98828,0.0469 1.38282,0.13281 0.39453,0.0898 0.73437,0.23829 1.01953,0.44922 0.28125,0.20703 0.5,0.47657 0.64843,0.80469 0.14844,0.32813 0.22266,0.73438 0.22266,1.21875 z m 0,0"
         id="path29" />
      <path
         fill-rule="nonzero"
         fill="#bdbcbc"
         fill-opacity="1"
         d="m 246.26172,234.28906 c -0.42578,0.20313 -0.82422,0.36328 -1.20313,0.47266 -0.3789,0.11328 -0.78515,0.17187 -1.21093,0.17187 -0.54297,0 -1.04297,-0.082 -1.4961,-0.24218 -0.45312,-0.16016 -0.83984,-0.39844 -1.16406,-0.72266 -0.32813,-0.32422 -0.58203,-0.73438 -0.76172,-1.22656 -0.17969,-0.4961 -0.26953,-1.07422 -0.26953,-1.73438 0,-1.23437 0.33594,-2.19922 1.01172,-2.90234 0.67578,-0.69922 1.57031,-1.05078 2.67969,-1.05078 0.43359,0 0.85546,0.0586 1.26953,0.18359 0.41797,0.12109 0.79687,0.26953 1.14453,0.44531 0,0 0,1.41016 0,1.41016 0,0 -0.0664,0 -0.0664,0 -0.39062,-0.29688 -0.78906,-0.52734 -1.19922,-0.6875 -0.41015,-0.16016 -0.8125,-0.24219 -1.20312,-0.24219 -0.72266,0 -1.28906,0.24219 -1.70703,0.72266 -0.41407,0.48437 -0.6211,1.1875 -0.6211,2.12109 0,0.90235 0.20313,1.59766 0.60938,2.08594 0.40625,0.48437 0.98047,0.72656 1.71875,0.72656 0.2539,0 0.51562,-0.0312 0.78125,-0.10156 0.26562,-0.0664 0.5039,-0.15234 0.71484,-0.25781 0.1836,-0.0937 0.35547,-0.19141 0.51953,-0.29688 0.16016,-0.10547 0.28907,-0.19531 0.38672,-0.27344 0,0 0.0664,0 0.0664,0 z m 0,0"
         id="path30" />
      <path
         fill-rule="nonzero"
         fill="#bdbcbc"
         fill-opacity="1"
         d="m 257.48437,234.76172 c 0,0 -1.66796,0 -1.66796,0 0,0 -3.02735,-3.29688 -3.02735,-3.29688 0,0 -0.82031,0.78125 -0.82031,0.78125 0,0 0,2.51563 0,2.51563 0,0 -1.26563,0 -1.26563,0 0,0 0,-10.49219 0,-10.49219 0,0 1.26563,0 1.26563,0 0,0 0,6.72266 0,6.72266 0,0 3.66406,-3.76953 3.66406,-3.76953 0,0 1.59766,0 1.59766,0 0,0 -3.50391,3.48437 -3.50391,3.48437 z m 0,0"
         id="path31"
         style="display:inline" />
    </g>
  </g>
</svg>
